<svg width="77" height="77" viewBox="0 0 77 77" fill="none" xmlns="http://www.w3.org/2000/svg">
<circle cx="39.0923" cy="37.9077" r="37.9077" fill="url(#paint0_linear_3_308)"/>
<path d="M38.5001 38.5L64.401 23.6615M38.5001 38.5V68.1771M38.5001 38.5L25.548 31.0823M64.401 23.6615C63.5022 22.1185 62.2131 20.8394 60.6633 19.9526L52.1355 15.0663M64.401 23.6615C65.2833 25.1758 65.7709 26.9179 65.7709 28.7306V48.2694C65.7699 50.0531 65.2969 51.8048 64.3998 53.3466C63.5027 54.8883 62.2135 56.1651 60.6633 57.0474L43.6077 66.82C42.0528 67.7103 40.2919 68.1782 38.5001 68.1771M38.5001 68.1771C36.7083 68.1782 34.9474 67.7103 33.3924 66.82L16.3369 57.0474C13.1767 55.2379 11.2292 51.8948 11.2292 48.2694V28.7306C11.2288 26.9498 11.7004 25.2007 12.596 23.6615M25.548 31.0823L12.596 23.6615M25.548 31.0823L52.1355 15.0663M52.1355 15.0663L43.6077 10.18C42.0531 9.28845 40.2922 8.81934 38.5001 8.81934C36.7079 8.81934 34.947 9.28845 33.3924 10.18L16.3369 19.9526C14.7859 20.8389 13.4956 22.1181 12.596 23.6615" stroke="black" stroke-width="1.5" stroke-linejoin="round"/>
<defs>
<linearGradient id="paint0_linear_3_308" x1="87.0692" y1="8.2923" x2="11.2538" y2="69.3" gradientUnits="userSpaceOnUse">
<stop stop-color="#8DA0A6"/>
<stop offset="1" stop-color="#C8D1D4"/>
</linearGradient>
</defs>
</svg>
