<svg width="77" height="77" viewBox="0 0 77 77" fill="none" xmlns="http://www.w3.org/2000/svg">
<g clip-path="url(#clip0_3_302)">
<circle cx="38.5" cy="38.5" r="38.5" fill="url(#paint0_linear_3_302)"/>
<path fill-rule="evenodd" clip-rule="evenodd" d="M19.8398 23.6665C17.0963 27.1565 16.1065 30.4359 16.2135 33.4896C16.3265 36.5909 17.5749 39.6269 19.5902 42.5708C23.6534 48.4944 30.5701 53.6612 36.2622 57.6765C37.6057 58.6262 39.3832 58.6262 40.7267 57.6765C46.4634 53.6404 53.3772 48.4766 57.4315 42.556C59.4408 39.618 60.6803 36.585 60.7873 33.4896C60.8883 30.4359 59.8956 27.1565 57.1461 23.6665C52.3309 18.5887 45.3963 18.7401 40.6762 22.8415C40.0694 23.3631 39.2952 23.65 38.4945 23.65C37.6937 23.65 36.9196 23.3631 36.3127 22.8415C31.5896 18.7431 24.661 18.5858 19.8398 23.6665ZM17.6314 21.6841C23.6237 15.3183 32.4041 15.5201 38.2626 20.6068C38.328 20.66 38.4101 20.6884 38.4945 20.6869C38.5935 20.683 38.6698 20.6562 38.7233 20.6068C44.5789 15.5201 53.3712 15.3154 59.3576 21.687L59.4022 21.7316L59.4408 21.782C62.5886 25.7587 63.8875 29.7266 63.7567 33.5935C63.6289 37.4278 62.0981 40.9979 59.8837 44.2328C55.4846 50.6549 48.1339 56.0977 42.4418 60.1071C41.2868 60.9224 39.907 61.3599 38.4925 61.3594C37.078 61.3588 35.6985 60.9203 34.5442 60.1041C28.8967 56.1155 21.543 50.6727 17.1379 44.2476C14.9206 41.0128 13.3809 37.4367 13.2441 33.5994C13.1074 29.7295 14.4004 25.7617 17.5481 21.782L17.5868 21.7316L17.6314 21.6841Z" fill="#D5B630"/>
</g>
<defs>
<linearGradient id="paint0_linear_3_302" x1="87.2266" y1="8.42187" x2="10.2266" y2="70.3828" gradientUnits="userSpaceOnUse">
<stop stop-color="#E9D474"/>
<stop offset="1" stop-color="#FFF4C2"/>
</linearGradient>
<clipPath id="clip0_3_302">
<rect width="77" height="77" fill="white"/>
</clipPath>
</defs>
</svg>
