<svg width="106" height="23" viewBox="0 0 106 23" fill="none" xmlns="http://www.w3.org/2000/svg">
<path d="M0.8 18V5.088H4.712L9.584 13.92H8.024L13.232 5.088H16.736L16.784 18H13.4V8.928L13.976 9.312L9.536 16.752H7.952L3.488 9.048L4.184 8.88V18H0.8ZM28.0983 18V15.48L27.8583 14.928V10.416C27.8583 9.616 27.6103 8.992 27.1143 8.544C26.6343 8.096 25.8903 7.872 24.8823 7.872C24.1943 7.872 23.5143 7.984 22.8423 8.208C22.1863 8.416 21.6263 8.704 21.1623 9.072L19.8183 6.456C20.5223 5.96 21.3703 5.576 22.3623 5.304C23.3543 5.032 24.3623 4.896 25.3863 4.896C27.3543 4.896 28.8823 5.36 29.9703 6.288C31.0583 7.216 31.6023 8.664 31.6023 10.632V18H28.0983ZM24.1623 18.192C23.1543 18.192 22.2903 18.024 21.5703 17.688C20.8503 17.336 20.2983 16.864 19.9143 16.272C19.5303 15.68 19.3383 15.016 19.3383 14.28C19.3383 13.512 19.5223 12.84 19.8903 12.264C20.2743 11.688 20.8743 11.24 21.6903 10.92C22.5063 10.584 23.5703 10.416 24.8823 10.416H28.3143V12.6H25.2903C24.4103 12.6 23.8023 12.744 23.4663 13.032C23.1463 13.32 22.9863 13.68 22.9863 14.112C22.9863 14.592 23.1703 14.976 23.5383 15.264C23.9223 15.536 24.4423 15.672 25.0983 15.672C25.7223 15.672 26.2823 15.528 26.7783 15.24C27.2743 14.936 27.6343 14.496 27.8583 13.92L28.4343 15.648C28.1623 16.48 27.6663 17.112 26.9463 17.544C26.2263 17.976 25.2983 18.192 24.1623 18.192ZM43.5427 18.288C43.5107 18.288 43.4227 18.288 43.2787 18.288C43.1347 18.288 42.9987 18.288 42.8707 18.288C42.7427 18.288 42.6547 18.288 42.6067 18.288C39.8067 18.24 37.6387 17.64 36.1027 16.488C34.5667 15.336 33.7987 13.672 33.7987 11.496C33.7987 9.352 34.5587 7.72 36.0787 6.6C37.6147 5.464 39.8147 4.888 42.6787 4.872C42.7107 4.872 42.7907 4.872 42.9187 4.872C43.0627 4.872 43.1987 4.872 43.3267 4.872C43.4547 4.872 43.5347 4.872 43.5667 4.872C46.4627 4.872 48.7027 5.432 50.2867 6.552C51.8867 7.672 52.6867 9.32 52.6867 11.496C52.6867 13.704 51.8867 15.392 50.2867 16.56C48.7027 17.712 46.4547 18.288 43.5427 18.288ZM43.4227 15.408C44.7507 15.408 45.8307 15.272 46.6627 15C47.4947 14.712 48.1027 14.28 48.4867 13.704C48.8867 13.112 49.0867 12.376 49.0867 11.496C49.0867 10.648 48.8947 9.952 48.5107 9.408C48.1267 8.848 47.5107 8.432 46.6627 8.16C45.8307 7.888 44.7507 7.752 43.4227 7.752C43.3747 7.752 43.2787 7.752 43.1347 7.752C42.9907 7.752 42.8947 7.752 42.8467 7.752C41.5667 7.752 40.5267 7.896 39.7267 8.184C38.9267 8.472 38.3427 8.888 37.9747 9.432C37.6067 9.976 37.4227 10.664 37.4227 11.496C37.4227 12.36 37.6067 13.08 37.9747 13.656C38.3427 14.232 38.9267 14.664 39.7267 14.952C40.5267 15.24 41.5667 15.392 42.8467 15.408C42.8947 15.408 42.9907 15.408 43.1347 15.408C43.2787 15.408 43.3747 15.408 43.4227 15.408ZM41.5267 22.656V0.191999H44.9587V22.656H41.5267ZM63.9099 18.288C63.8779 18.288 63.7899 18.288 63.6459 18.288C63.5019 18.288 63.3659 18.288 63.2379 18.288C63.1099 18.288 63.0219 18.288 62.9739 18.288C60.1739 18.24 58.0059 17.64 56.4699 16.488C54.9339 15.336 54.1659 13.672 54.1659 11.496C54.1659 9.352 54.9259 7.72 56.4459 6.6C57.9819 5.464 60.1819 4.888 63.0459 4.872C63.0779 4.872 63.1579 4.872 63.2859 4.872C63.4299 4.872 63.5659 4.872 63.6939 4.872C63.8219 4.872 63.9019 4.872 63.9339 4.872C66.8299 4.872 69.0699 5.432 70.6539 6.552C72.2539 7.672 73.0539 9.32 73.0539 11.496C73.0539 13.704 72.2539 15.392 70.6539 16.56C69.0699 17.712 66.8219 18.288 63.9099 18.288ZM63.7899 15.408C65.1179 15.408 66.1979 15.272 67.0299 15C67.8619 14.712 68.4699 14.28 68.8539 13.704C69.2539 13.112 69.4539 12.376 69.4539 11.496C69.4539 10.648 69.2619 9.952 68.8779 9.408C68.4939 8.848 67.8779 8.432 67.0299 8.16C66.1979 7.888 65.1179 7.752 63.7899 7.752C63.7419 7.752 63.6459 7.752 63.5019 7.752C63.3579 7.752 63.2619 7.752 63.2139 7.752C61.9339 7.752 60.8939 7.896 60.0939 8.184C59.2939 8.472 58.7099 8.888 58.3419 9.432C57.9739 9.976 57.7899 10.664 57.7899 11.496C57.7899 12.36 57.9739 13.08 58.3419 13.656C58.7099 14.232 59.2939 14.664 60.0939 14.952C60.8939 15.24 61.9339 15.392 63.2139 15.408C63.2619 15.408 63.3579 15.408 63.5019 15.408C63.6459 15.408 63.7419 15.408 63.7899 15.408ZM61.8939 22.656V0.191999H65.3259V22.656H61.8939ZM75.5891 18V5.088H79.3091V12.768L85.5971 5.088H89.0291V18H85.3091V10.32L79.0451 18H75.5891ZM92.6281 18V5.088H96.3481V10.128H101.964V5.088H105.708V18H101.964V13.176H96.3481V18H92.6281Z" fill="#1A404C"/>
</svg>
