<svg width="27" height="19" viewBox="0 0 27 19" fill="none" xmlns="http://www.w3.org/2000/svg">
<path d="M10.8 13.5714L17.8065 9.5L10.8 5.42857V13.5714ZM26.406 2.945C26.5815 3.58286 26.703 4.43786 26.784 5.52357C26.8785 6.60928 26.919 7.54571 26.919 8.36L27 9.5C27 12.4721 26.784 14.6571 26.406 16.055C26.0685 17.2764 25.2855 18.0636 24.0705 18.4029C23.436 18.5793 22.275 18.7014 20.493 18.7829C18.738 18.8779 17.1315 18.9186 15.6465 18.9186L13.5 19C7.8435 19 4.32 18.7829 2.9295 18.4029C1.7145 18.0636 0.9315 17.2764 0.594 16.055C0.4185 15.4171 0.297 14.5621 0.216 13.4764C0.1215 12.3907 0.0809999 11.4543 0.0809999 10.64L0 9.5C0 6.52786 0.216 4.34286 0.594 2.945C0.9315 1.72357 1.7145 0.936429 2.9295 0.597143C3.564 0.420714 4.725 0.298571 6.507 0.217143C8.262 0.122143 9.8685 0.0814285 11.3535 0.0814285L13.5 0C19.1565 0 22.68 0.217143 24.0705 0.597143C25.2855 0.936429 26.0685 1.72357 26.406 2.945Z" fill="#1A404C"/>
</svg>
